<?xml version="1.0" ?><svg viewBox="0 0 64 64" xmlns="http://www.w3.org/2000/svg"><g data-name="Layer 3" id="Layer_3"><path d="M41,24,48,7,41,1,39.123,2.5A11.4,11.4,0,0,1,32,5h0a11.4,11.4,0,0,1-7.123-2.5L23,1,16,7l7,17v3C20.724,37.873,15.876,49.241,9,61a133.258,133.258,0,0,0,46,0C48.124,49.241,43.276,37.873,41,27Z" style="fill:#f2a7b1"/><path d="M12,61c6.876-11.759,11.724-23.127,14-34V24L20.1,9.676A4,4,0,0,1,21.2,5.117l3.355-2.876L23,1,16,7l7,17v3C20.724,37.873,15.876,49.241,9,61a133.75,133.75,0,0,0,24.49,1.984A134.1,134.1,0,0,1,12,61Z" style="fill:#e8859b"/><rect height="3" style="fill:#ed5d5d" width="18" x="23" y="24"/><polygon points="28 35 25 35 29 27 32 27 28 35" style="fill:#ed5d5d"/><polygon points="36 35 39 35 35 27 32 27 36 35" style="fill:#ed5d5d"/><path d="M32,27l-3.534.589A2.118,2.118,0,0,1,26,25.5h0a2.118,2.118,0,0,1,2.466-2.089L32,24Z" style="fill:#f97878"/><path d="M35.534,27.589,32,27V24l3.534-.589A2.118,2.118,0,0,1,38,25.5h0A2.118,2.118,0,0,1,35.534,27.589Z" style="fill:#f97878"/></g></svg>