<?xml version="1.0" ?><svg style="enable-background:new 0 0 685.332 560.866;" version="1.1" viewBox="0 0 685.332 560.866" xml:space="preserve" xmlns="http://www.w3.org/2000/svg" xmlns:xlink="http://www.w3.org/1999/xlink"><g id="_x31_9-Jacket"><g><g><polygon points="139.073,530.691 20.501,511.409 30.274,451.291 148.846,470.574    " style="fill:#EE6C00;"/><polygon points="546.259,530.691 664.832,511.409 655.059,451.291 536.486,470.574    " style="fill:#EE6C00;"/></g><path d="M427.389,0H257.944c-11.827,0-21.416,9.589-21.416,21.416v79.829    c0,11.827,9.589,21.416,21.416,21.416h169.445c11.827,0,21.416-9.589,21.416-21.416V21.416C448.805,9.589,439.216,0,427.389,0z" style="fill:#F47C00;"/><path d="M427.389,0H394.7c11.827,0,21.416,9.589,21.416,21.416v79.829c0,11.827-9.589,21.416-21.416,21.416    h32.689c11.827,0,21.416-9.589,21.416-21.416V21.416C448.805,9.589,439.216,0,427.389,0z" style="fill:#EE6C00;"/><g><g><path d="M626.019,138.147c-7.775-35.596-43.14-58.256-78.84-50.518l-71.223,15.435      c-17.338,3.759-32.16,14.033-41.739,28.934c-9.537,14.844-12.721,32.506-8.962,49.733c6.745,30.885,34.262,52.034,64.75,52.034      c4.648,0,9.369-0.491,14.091-1.516l71.223-15.435c17.338-3.765,32.16-14.038,41.739-28.94      C626.594,173.032,629.778,155.37,626.019,138.147z" style="fill:#F28400;"/><path d="M645.668,228.161c-7.775-35.596-43.146-58.256-78.84-50.523l-71.223,15.44      c-17.338,3.759-32.16,14.033-41.739,28.934c-9.537,14.849-12.721,32.506-8.962,49.733c6.745,30.885,34.262,52.034,64.75,52.034      c4.648,0,9.369-0.491,14.091-1.516l71.223-15.44c17.338-3.759,32.166-14.033,41.739-28.934      C646.243,263.046,649.427,245.384,645.668,228.161z" style="fill:#F47C00;"/><path d="M664.731,315.487c-7.775-35.596-43.156-58.256-78.84-50.523l-71.223,15.44      c-17.338,3.759-32.16,14.033-41.739,28.934c-9.537,14.849-12.721,32.506-8.962,49.733c6.745,30.885,34.262,52.034,64.75,52.034      c4.648,0,9.369-0.491,14.091-1.516l71.223-15.44c17.338-3.759,32.166-14.033,41.739-28.934      C665.306,350.372,668.49,332.71,664.731,315.487z" style="fill:#F28400;"/><path d="M683.794,402.814c-7.77-35.601-43.13-58.261-78.84-50.523l-71.223,15.44      c-17.338,3.759-32.16,14.033-41.739,28.934c-9.537,14.844-12.721,32.506-8.962,49.733c6.745,30.885,34.262,52.034,64.75,52.034      c4.648,0,9.369-0.491,14.091-1.516l71.223-15.44c17.338-3.759,32.166-14.033,41.739-28.934      C684.369,437.698,687.553,420.036,683.794,402.814z" style="fill:#F47C00;"/></g><g><path d="M251.115,131.999c-9.579-14.901-24.401-25.175-41.739-28.934L138.154,87.63      c-35.716-7.749-71.071,14.922-78.84,50.518c-3.759,17.223-0.575,34.885,8.962,49.728c9.579,14.901,24.401,25.175,41.739,28.94      l71.223,15.435c4.727,1.025,9.443,1.516,14.091,1.516c30.482,0,58.005-21.149,64.75-52.034      C263.836,164.504,260.652,146.842,251.115,131.999z" style="fill:#F28400;"/><path d="M231.467,222.012c-9.579-14.901-24.401-25.175-41.739-28.934l-71.223-15.44      c-35.726-7.733-71.066,14.927-78.84,50.523c-3.759,17.223-0.575,34.885,8.962,49.728c9.573,14.901,24.401,25.175,41.739,28.934      l71.223,15.44c4.727,1.025,9.443,1.516,14.091,1.516c30.487,0,58.005-21.149,64.75-52.034      C244.188,254.518,241.003,236.861,231.467,222.012z" style="fill:#F47C00;"/><path d="M212.404,309.339c-9.579-14.901-24.401-25.175-41.739-28.934l-71.223-15.44      c-35.711-7.733-71.066,14.927-78.84,50.523c-3.759,17.223-0.575,34.884,8.962,49.728c9.573,14.901,24.401,25.175,41.739,28.934      l71.223,15.44c4.727,1.025,9.437,1.516,14.091,1.516c30.482,0,58.005-21.154,64.75-52.034      C225.124,341.844,221.94,324.187,212.404,309.339z" style="fill:#F28400;"/><path d="M193.34,396.665c-9.579-14.901-24.401-25.175-41.739-28.934l-71.223-15.44      c-35.732-7.743-71.066,14.927-78.84,50.523c-3.759,17.223-0.575,34.884,8.962,49.728c9.573,14.901,24.401,25.175,41.739,28.934      l71.223,15.44c4.727,1.025,9.443,1.516,14.091,1.516c30.487,0,58.005-21.149,64.75-52.034      C206.061,429.17,202.877,411.509,193.34,396.665z" style="fill:#F47C00;"/></g></g><path d="M490.314,79.829H195.019c-41.781,0-75.777,33.99-75.777,75.771s33.996,75.771,75.777,75.771    h295.295c41.781,0,75.777-33.99,75.777-75.771S532.094,79.829,490.314,79.829z" style="fill:#FE9700;"/><path d="M490.314,79.829h-50.863c41.781,0,75.777,33.99,75.777,75.771s-33.996,75.771-75.777,75.771h50.863    c41.781,0,75.777-33.99,75.777-75.771S532.094,79.829,490.314,79.829z" style="fill:#FE8E00;"/><path d="M490.314,191.886H195.019c-41.781,0-75.777,33.996-75.777,75.777s33.996,75.771,75.777,75.771    h295.295c41.781,0,75.777-33.99,75.777-75.771S532.094,191.886,490.314,191.886z" style="fill:#FEB200;"/><path d="M490.314,191.886h-50.863c41.781,0,75.777,33.996,75.777,75.777s-33.996,75.771-75.777,75.771    h50.863c41.781,0,75.777-33.99,75.777-75.771S532.094,191.886,490.314,191.886z" style="fill:#FEAA00;"/><path d="M490.314,300.602H195.019c-41.781,0-75.777,33.99-75.777,75.777    c0,41.781,33.996,75.771,75.777,75.771h295.295c41.781,0,75.777-33.99,75.777-75.771    C566.09,334.592,532.094,300.602,490.314,300.602z" style="fill:#FE9700;"/><path d="M490.314,300.602h-50.863c41.781,0,75.777,33.99,75.777,75.777    c0,41.781-33.996,75.771-75.777,75.771h50.863c41.781,0,75.777-33.99,75.777-75.771    C566.09,334.592,532.094,300.602,490.314,300.602z" style="fill:#FE8E00;"/><path d="M490.314,409.318H195.019c-41.781,0-75.777,33.996-75.777,75.777s33.996,75.771,75.777,75.771    h295.295c41.781,0,75.777-33.99,75.777-75.771S532.094,409.318,490.314,409.318z" style="fill:#FEB200;"/><path d="M490.314,409.318h-50.863c41.781,0,75.777,33.996,75.777,75.777s-33.996,75.771-75.777,75.771    h50.863c41.781,0,75.777-33.99,75.777-75.771S532.094,409.318,490.314,409.318z" style="fill:#FEAA00;"/><g><line style="fill:#F47C00;" x1="342.666" x2="342.666" y1="107.525" y2="539.451"/><path d="M364.082,68.76c0-13.918-9.589-25.207-21.416-25.207c-11.827,0-21.416,11.288-21.416,25.207     v492.106h42.832V68.76z" style="fill:#F47C00;"/></g></g></g><g id="Layer_1"/></svg>