<?xml version="1.0" ?><svg viewBox="0 0 512 512" xmlns="http://www.w3.org/2000/svg"><defs><style>.cls-1{fill:#006095;}.cls-2{fill:#0071af;}.cls-3{fill:#fda5a3;}.cls-4{fill:#ec9090;}.cls-5{fill:#353535;}.cls-6{fill:#2d2d2d;}.cls-7{fill:#bebebe;}.cls-8{fill:#6e6e6e;}.cls-9{fill:#00b378;}.cls-10{fill:#dfdfdf;}.cls-11{fill:#338dbf;}.cls-12{fill:#cbe2ef;}.cls-13{fill:#d27676;}.cls-14{fill:#f4f4f4;}.cls-15{fill:#d78d8b;}.cls-16{fill:#c97b7b;}.cls-17{fill:#a2a2a2;}.cls-18{fill:#096;}.cls-19{fill:#b36565;}.cls-20{fill:#5e5e5e;}.cls-21{fill:#2c78a3;}</style></defs><title/><g data-name="/ FILLED_OUTLINE" id="_FILLED_OUTLINE"><path class="cls-1" d="M280,328H240a32,32,0,0,0-32,32v88h40V368h32Z"/><path class="cls-2" d="M248,448V360a32,32,0,0,1,32-32h16a16,16,0,0,0,16-16V296h88v56a16,16,0,0,1-16,16H304a16,16,0,0,0-16,16v64Z"/><rect class="cls-3" height="64" width="40" x="248" y="384"/><rect class="cls-4" height="64" width="40" x="208" y="384"/><path class="cls-5" d="M188,448h68a0,0,0,0,1,0,0v20a20,20,0,0,1-20,20H188a20,20,0,0,1-20-20v0A20,20,0,0,1,188,448Z"/><path class="cls-5" d="M236,448a20,20,0,0,0,0,40h32a19.9999,19.9999,0,0,0,20-20V448Z"/><path class="cls-6" d="M248,488h20a19.9999,19.9999,0,0,0,20-20V448A40,40,0,0,1,248,488Z"/><path class="cls-5" d="M216,488h40V448A40,40,0,0,1,216,488Z"/><path class="cls-6" d="M216,488h20a19.9999,19.9999,0,0,0,20-20V448A40,40,0,0,1,216,488Z"/><path class="cls-7" d="M408,464H392V400H376v64H360a24.02718,24.02718,0,0,0-24,24v8h16v-8a8.00917,8.00917,0,0,1,8-8h16v16h16V480h16a8.00917,8.00917,0,0,1,8,8v8h16v-8A24.02718,24.02718,0,0,0,408,464Z"/><path class="cls-7" d="M296,264H240v32h72V280A16.00008,16.00008,0,0,0,296,264Z"/><path class="cls-4" d="M216,216v0a16,16,0,0,0,16,16h96V200H232A16,16,0,0,0,216,216Z"/><path class="cls-8" d="M419.27059,184.013C408.43279,184.39836,400,193.6347,400,204.47934V352a16,16,0,0,1-16,16H340a19.9999,19.9999,0,0,0-20,20h0a19.9999,19.9999,0,0,0,20,20h68a32,32,0,0,0,32-32V204A20.00054,20.00054,0,0,0,419.27059,184.013Z"/><path class="cls-3" d="M344,160v-5.16747a16,16,0,0,0-10.05775-14.85563l-9.82675-3.9307A32,32,0,0,1,304,106.33494V80h80v80Z"/><path class="cls-9" d="M352,160h-8l-22.62738,22.62738A32.00011,32.00011,0,0,0,312,205.25488V296h88V203.33126a48,48,0,0,0-5.06749-21.46625L384,160Z"/><rect class="cls-10" height="232" width="16" x="32" y="72"/><rect class="cls-10" height="16.00036" transform="translate(-33.13708 79.99512) rotate(-44.99753)" width="181.01934" x="-10.50967" y="71.99982"/><path class="cls-11" d="M120,40h26.74517a32,32,0,0,1,22.62741,9.37258L184,64l-40,40L129.37258,89.37258A32,32,0,0,1,120,66.74517Z"/><rect class="cls-11" height="45.25483" transform="translate(6.86292 96.56854) rotate(-45)" width="16.00036" x="111.99982" y="17.37258"/><rect class="cls-12" height="22.62742" transform="translate(-22.96046 168.56854) rotate(-45)" width="16.00036" x="183.99982" y="100.68629"/><rect class="cls-12" height="16" width="24" x="200" y="80"/><rect class="cls-12" height="24" width="16" x="160" y="120"/><path class="cls-3" d="M360,208v8a16.00008,16.00008,0,0,1-16,16H296a15.99993,15.99993,0,0,0-16,16h0a16.00008,16.00008,0,0,0,16,16h72a32,32,0,0,0,32-32V208Z"/><path class="cls-13" d="M344,40H304V80h80A40,40,0,0,0,344,40Z"/><path class="cls-7" d="M234.57251,188.86206A16.00016,16.00016,0,0,0,218.88306,176H107.51685a15.99991,15.99991,0,0,0-15.68921,19.1377L112,296H256Z"/><path class="cls-4" d="M384,80H368v32h16a16.00008,16.00008,0,0,0,16-16h0A15.99993,15.99993,0,0,0,384,80Z"/><circle class="cls-14" cx="168" cy="232" r="16"/><path class="cls-15" d="M248,448h40V408A40.0001,40.0001,0,0,1,248,448Z"/><path class="cls-16" d="M208,448h40V408A40.0001,40.0001,0,0,1,208,448Z"/><path class="cls-17" d="M144.00012,288H254.4l-11.77636-58.88208A111.9762,111.9762,0,0,1,144.00012,288Z"/><path class="cls-18" d="M344,288h56V232A56.00012,56.00012,0,0,1,344,288Z"/><path class="cls-15" d="M360,160h24V136A23.99994,23.99994,0,0,1,360,160Z"/><path class="cls-19" d="M344,80h40a39.79971,39.79971,0,0,0-5.36462-20A39.97379,39.97379,0,0,1,344,80Z"/><path class="cls-1" d="M336,368h48a16.00008,16.00008,0,0,0,16-16V304A64,64,0,0,1,336,368Z"/><path class="cls-20" d="M334.25659,407.15332A19.9884,19.9884,0,0,0,340,408h68a32.00018,32.00018,0,0,0,32-32V288A120.01371,120.01371,0,0,1,334.25659,407.15332Z"/><path class="cls-17" d="M376,408v16a16.00008,16.00008,0,0,1,16-16Z"/><polygon class="cls-10" points="496 288 16 288 16 304 32 304 32 496 48 496 48 304 464 304 464 496 480 496 480 304 496 304 496 288"/><path class="cls-15" d="M344,264h24a32,32,0,0,0,32-32V208A56,56,0,0,1,344,264Z"/><path class="cls-16" d="M280,232h32V200A32,32,0,0,1,280,232Z"/><path class="cls-21" d="M134.93359,94.93359,144,104l40-40-9.06641-9.06641A88.35924,88.35924,0,0,1,134.93359,94.93359Z"/><path class="cls-17" d="M288,288h24v-8a15.90919,15.90919,0,0,0-1.69629-7.13916A24.00215,24.00215,0,0,1,288,288Z"/><path d="M448,288V204a27.98143,27.98143,0,0,0-41.67749-24.41895,46.35343,46.35343,0,0,0-11.97925-20.55175A7.94524,7.94524,0,0,1,392,153.37305V118.62378a23.99406,23.99406,0,0,0-.489-45.41333A48.06677,48.06677,0,0,0,344,32H296v74.335a39.80821,39.80821,0,0,0,25.14453,37.13867l9.82666,3.93067A7.96217,7.96217,0,0,1,336,154.833v1.85351L315.71533,176.9707A39.852,39.852,0,0,0,306.2439,192H243.35815L242.417,187.294A24.06482,24.06482,0,0,0,218.8833,168H107.51709a24.0005,24.0005,0,0,0-23.53418,28.707L102.24146,288H48V123.314l64-64v7.43116a39.74371,39.74371,0,0,0,11.71582,28.28515L144,115.31348,195.314,64,175.02979,43.7168A39.734,39.734,0,0,0,146.74512,32H139.314l10.34278-10.34277L138.34326,10.34277,120,28.686,109.65674,18.34277,98.34326,29.65723,108.686,40,48,100.686V72H32v44.686L10.34326,138.34277l11.31348,11.31446L32,139.314V288H16v16H32V496H48V304H304v8a8.00917,8.00917,0,0,1-8,8H240a40.04552,40.04552,0,0,0-40,40v80H188a28,28,0,0,0,0,56h80a28.03146,28.03146,0,0,0,28-28V384a8.00917,8.00917,0,0,1,8-8h10.707A27.991,27.991,0,0,0,340,416h36v48H360a24.02718,24.02718,0,0,0-24,24v8h16v-8a8.00917,8.00917,0,0,1,8-8h16v16h16V480h16a8.00917,8.00917,0,0,1,8,8v8h16v-8a24.02718,24.02718,0,0,0-24-24H392V416h16a40.04552,40.04552,0,0,0,40-40V304h16V496h16V304h16V288ZM128,48h18.74512a23.83777,23.83777,0,0,1,16.9707,7.03027L172.686,64,144,92.68652l-8.97021-8.96972A23.84779,23.84779,0,0,1,128,66.74512Zm82.707,432H188a12,12,0,0,1,0-24h22.707a27.95093,27.95093,0,0,0,0,24ZM312,48h32a32.0573,32.0573,0,0,1,30.9873,24H312Zm15.08643,80.61816A23.8848,23.8848,0,0,1,312,106.335V88h72a8,8,0,0,1,0,16H368v16h8v32H351.81885a23.8572,23.8572,0,0,0-14.90528-19.45117ZM320,205.25488a23.84541,23.84541,0,0,1,7.0293-16.9707L347.31348,168h33.66284a24.3398,24.3398,0,0,0,2.053,2.34277A30.42939,30.42939,0,0,1,392,192v24H368V200H352v16a8.00917,8.00917,0,0,1-8,8H320ZM344,240a23.9433,23.9433,0,0,0,17.86926-8H392a24.02718,24.02718,0,0,1-24,24H296a8,8,0,0,1,0-16Zm-25.37622,32H368a39.79015,39.79015,0,0,0,24-8.022V288H320v-8A23.88129,23.88129,0,0,0,318.62378,272ZM118.55859,288,99.67236,193.56836A7.9992,7.9992,0,0,1,107.51709,184H218.8833a8.02128,8.02128,0,0,1,7.84424,6.43164L246.24146,288Zm127.99976-80H304v16H249.7583Zm6.4,32h20.41785a23.94021,23.94021,0,0,0,0,16H256.15845Zm9.60022,48-3.20007-16H296a8.00917,8.00917,0,0,1,8,8v8ZM216,360a24.02718,24.02718,0,0,1,24-24h8.022A39.7896,39.7896,0,0,0,240,360v16H216Zm0,32h24v48H216Zm64,76a12.01343,12.01343,0,0,1-12,12H236a12,12,0,0,1,0-24h44Zm0-28H256V392h24Zm24-80a24.038,24.038,0,0,0-22.62378,16H256V360a24.02718,24.02718,0,0,1,24-24h16a24.02718,24.02718,0,0,0,24-24v-8h72v48a8.00917,8.00917,0,0,1-8,8Zm128,16a24.02718,24.02718,0,0,1-24,24H340a12,12,0,0,1,0-24h44a24.02718,24.02718,0,0,0,24-24V304h24Zm0-88H408V204a12,12,0,0,1,24,0Z"/><rect height="22.62742" transform="translate(-22.96046 168.56854) rotate(-45)" width="16.00036" x="183.99982" y="100.68629"/><rect height="16" width="24" x="200" y="80"/><rect height="24" width="16" x="160" y="120"/><path d="M168,208a24,24,0,1,0,24,24A24.02718,24.02718,0,0,0,168,208Zm0,32a8,8,0,1,1,8-8A8.00917,8.00917,0,0,1,168,240Z"/></g></svg>