<?xml version="1.0" ?><svg data-name="Layer 1" id="Layer_1" viewBox="0 0 272 272" xmlns="http://www.w3.org/2000/svg"><defs><style>.cls-1{fill:#f54337;}.cls-2{fill:#fec107;}.cls-3{fill:#e2e3e5;}.cls-4{fill:#ffeb3c;}</style></defs><title/><path class="cls-1" d="M136,62C76.45,62,28,106.86,28,162H46.57c0-44.11,40.12-80,89.43-80s89.43,35.89,89.43,80H244C244,106.86,195.55,62,136,62Z"/><path class="cls-2" d="M136,82c-49.31,0-89.43,35.89-89.43,80H65.14c0-15.34,7-30,19.64-41.29C98.36,108.65,116.55,102,136,102s37.63,6.64,51.21,18.71C199.88,132,206.86,146.65,206.86,162h18.57C225.43,117.89,185.31,82,136,82Z"/><rect class="cls-3" height="16" rx="8" ry="8" width="24" x="8" y="194"/><rect class="cls-3" height="16" rx="8" ry="8" width="48" x="160" y="194"/><path class="cls-3" d="M84,162H28a12,12,0,0,0,0,24H48a4,4,0,1,1,0,8,8,8,0,0,0,0,16H72a8,8,0,1,0,0-16,4,4,0,0,1,0-8H84a12,12,0,1,0,0-24Z"/><path class="cls-3" d="M256,194H244c-1.47,0-2.67-1.79-2.67-4s1.19-4,2.67-4a12,12,0,0,0,0-24H188a12,12,0,0,0,0,24h40c1.47,0,2.67,1.79,2.67,4s-1.19,4-2.67,4h-4a8,8,0,0,0,0,16h32a8,8,0,0,0,0-16Z"/><path class="cls-4" d="M187.21,120.71C173.63,108.64,155.45,102,136,102s-37.64,6.65-51.22,18.71C72.12,132,65.14,146.66,65.14,162H84a11.94,11.94,0,0,1,8,3,20.3,20.3,0,0,1-.24-3c0-7,3.63-14,10.22-19.89C110.72,134.3,122.82,130,136,130s25.28,4.3,34.06,12.11C176.66,148,180.29,155,180.29,162a20.29,20.29,0,0,1-.24,3,11.94,11.94,0,0,1,8-3h18.86C206.86,146.65,199.88,132,187.21,120.71Z"/></svg>